<svg id="Layer_1" data-name="Layer 1" xmlns="http://www.w3.org/2000/svg" viewBox="0 0 104.6 62.83"><defs><style>.cls-1{fill:#fff27b;stroke:#323232;stroke-miterlimit:10;stroke-width:0.5px;}</style></defs><path class="cls-1" d="M103.74,26l-2.65-5.35H35.55C29.2,7.05,26.36.87,18.47.87A30.21,30.21,0,0,0,10.39,2l3,7.35h.16a27.05,27.05,0,0,1,7.58-1.1c5.67,0,7.46,4.69,10.3,12.43H1.4l-.55.74,2.66,5.35h7.7v12.5C5.93,40.36,5,42,5,43.8c0,2,1.29,4.1,3.48,6.21,2.5,2.34,4.42,3.4,5.7,3.4a3.52,3.52,0,0,0,2-.7c1.29-.94,1.44-1.61,1.44-6.65H30.19L30,60l6.22,1.8.54-.39L36.6,26.73H73.24v4.73A23.75,23.75,0,0,0,63.47,35c-3.48-2.65-5.66-4.1-9.26-4.1-5.15,0-9.49,3.71-9.49,10.2,0,8.2,7.42,16.75,15.39,20.89l.51-.19,1.91-6.13C55,53.14,51,50,51,44.89c0-4.49,3.28-8,7.11-8a6.33,6.33,0,0,1,2.77.62A15.86,15.86,0,0,0,58,44.23l5.2,3.55h.54c1.57-5.46,3.21-8,9.46-9.72L73.08,60l6.21,1.8.55-.39-.16-34.65h10.2l-.16,33.2L96,61.77l.55-.39L96.4,26.73h6.8ZM30.15,39.42H17.49V26.73H30.15Z"/></svg>